<svg width="48" height="48" viewBox="0 0 48 48" fill="none" xmlns="http://www.w3.org/2000/svg">
<rect width="48" height="48" rx="24" fill="#ECA527"/>
<g clip-path="url(#clip0_845_54)">
<path d="M38.3971 14.9225C37.2963 15.4101 36.1287 15.7302 34.9331 15.8721C36.1784 15.1257 37.1347 13.9437 37.5849 12.5354C36.4011 13.238 35.1058 13.7329 33.7551 13.999C32.6549 12.8269 31.0876 12.0944 29.3528 12.0944C26.022 12.0944 23.3215 14.7948 23.3215 18.1254C23.3215 18.5981 23.3749 19.0584 23.4776 19.4999C18.4652 19.2483 14.0212 16.8473 11.0464 13.1984C10.5274 14.0891 10.23 15.1253 10.23 16.2304C10.23 18.3229 11.2948 20.1688 12.913 21.2504C11.9553 21.2204 11.0186 20.9617 10.1812 20.496C10.1808 20.5212 10.1808 20.5465 10.1808 20.5719C10.1808 23.494 12.2598 25.9317 15.0187 26.4857C14.1306 26.7273 13.199 26.7626 12.2951 26.5891C13.0625 28.9852 15.29 30.7288 17.929 30.7776C15.8649 32.3951 13.2643 33.3594 10.4387 33.3594C9.95185 33.3594 9.47185 33.3308 9 33.2751C11.6691 34.9863 14.8392 35.9848 18.2452 35.9848C29.3388 35.9848 35.4051 26.7946 35.4051 18.8248C35.4051 18.5632 35.3993 18.3031 35.3876 18.0445C36.5683 17.191 37.5875 16.1337 38.3971 14.9225Z" fill="white"/>
</g>
<defs>
<clipPath id="clip0_845_54">
<rect width="29.4" height="24" fill="white" transform="translate(9 12)"/>
</clipPath>
</defs>
</svg>
